%
M48
M72
T01C0.02000
T02C0.03200
T03C0.03346
T04C0.03543
T05C0.03937
T06C0.04000
T07C0.05906
T08C0.12500
%
T01
X126250Y56800
X156250Y81800
X166250Y66800
X161250Y46800
X171250Y96800
X191250Y126800
X206250Y121800
X221250Y116800
X228361Y121800
X231250Y126800
X251250Y141800
X256250Y136800
X281250Y131800
X266250Y106800
X271250Y91800
X281250Y91800
X256250Y86800
X236250Y66800
X231250Y56800
X241250Y46800
X271250Y21800
X276250Y26800
X176250Y131800
X171250Y136800
X166250Y141800
X186250Y146800
X186250Y166800
X191250Y166800
X201250Y171800
X211250Y161800
X216250Y156800
X226250Y146800
X236250Y161800
X226250Y176800
X221250Y186800
X216250Y196800
X196250Y186800
X161250Y176800
X156250Y171800
X151250Y156800
X131250Y161800
X116250Y186800
X121250Y196800
X131250Y191800
X196250Y226800
X211250Y216800
X116250Y251800
X351250Y141800
X366250Y301957
T02
X366250Y326800
X326250Y326800
X336250Y251800
X336250Y241800
X296250Y241800
X296250Y231800
X296250Y221800
X296250Y211800
X296250Y201800
X296250Y191800
X296250Y181800
X296250Y171800
X296250Y161800
X296250Y151800
X296250Y141800
X296250Y131800
X296250Y121800
X321250Y131800
X336250Y131800
X321250Y151800
X321250Y171800
X266250Y171800
X266250Y181800
X266250Y191800
X266250Y201800
X266250Y211800
X266250Y221800
X266250Y231800
X266250Y241800
X266250Y251800
X296250Y251800
X391250Y171800
X391250Y161800
X406250Y161800
X406250Y151800
X406250Y141800
X406250Y131800
X406250Y121800
X386250Y101800
X396250Y96800
X371250Y101800
X336250Y91800
X321250Y91800
X266250Y121800
X266250Y131800
X266250Y141800
X266250Y151800
X266250Y161800
X251250Y131800
X251250Y121800
X371250Y141800
X386250Y141800
X406250Y171800
X406250Y181800
X406250Y191800
X406250Y201800
X406250Y211800
X406250Y221800
X406250Y231800
X406250Y241800
X406250Y251800
X436250Y251800
X436250Y241800
X436250Y231800
X436250Y221800
X436250Y211800
X436250Y201800
X436250Y191800
X436250Y181800
X436250Y171800
X436250Y161800
X436250Y151800
X436250Y141800
X436250Y131800
X436250Y121800
X436250Y111800
X436250Y101800
X436250Y96800
X166250Y246800
X146250Y236800
X131250Y266800
X131250Y276800
X146250Y276800
X166250Y286800
T03
X110380Y266143
X110380Y246457
T04
X101250Y201643
X101250Y191800
X101250Y181957
T05
X186407Y276800
X206093Y276800
X336407Y301800
X356093Y301800
T06
X116250Y71800
X116250Y81800
X116250Y91800
X116250Y101800
X116250Y111800
X116250Y121800
X141250Y116800
X141250Y126800
X141250Y106800
X141250Y96800
X141250Y86800
X141250Y76800
X141250Y66800
X176250Y86800
X186250Y86800
X186250Y76800
X196250Y76800
X196250Y86800
X196250Y96800
X196250Y106800
X186250Y106800
X186250Y96800
X206250Y96800
X196250Y116800
X186250Y116800
X186250Y66800
X186250Y56800
X196250Y56800
X196250Y66800
X196250Y46800
X196250Y36800
X186250Y36800
X186250Y46800
X176250Y36800
X186250Y26800
X186250Y16800
X196250Y16800
X196250Y26800
X286250Y21800
X286250Y31800
X296250Y31800
X296250Y21800
X296250Y11800
X286250Y11800
X316250Y11800
X326250Y11800
X336250Y11800
X346250Y11800
X356250Y11800
X356250Y21800
X356250Y31800
X346250Y31800
X346250Y21800
X336250Y21800
X336250Y31800
X326250Y31800
X326250Y21800
X316250Y21800
X316250Y31800
X316250Y41800
X316250Y51800
X326250Y51800
X326250Y41800
X336250Y41800
X336250Y51800
X346250Y51800
X346250Y41800
X356250Y41800
X356250Y51800
X356250Y61800
X346250Y61800
X336250Y61800
X326250Y61800
X316250Y61800
X316250Y71800
X316250Y81800
X326250Y81800
X326250Y71800
X336250Y71800
X336250Y81800
X346250Y81800
X346250Y71800
X356250Y71800
X356250Y81800
X366250Y81800
X366250Y71800
X376250Y71800
X376250Y81800
X386250Y81800
X386250Y71800
X396250Y71800
X396250Y81800
X406250Y81800
X406250Y71800
X406250Y61800
X396250Y61800
X386250Y61800
X376250Y61800
X366250Y61800
X366250Y51800
X366250Y41800
X376250Y41800
X376250Y51800
X386250Y51800
X386250Y41800
X396250Y41800
X396250Y51800
X406250Y51800
X406250Y41800
X406250Y31800
X406250Y21800
X396250Y21800
X396250Y31800
X386250Y31800
X386250Y21800
X376250Y21800
X376250Y31800
X366250Y31800
X366250Y21800
X366250Y11800
X376250Y11800
X386250Y11800
X396250Y11800
X406250Y11800
X426250Y11800
X436250Y11800
X436250Y21800
X436250Y31800
X426250Y31800
X426250Y21800
X426250Y41800
X426250Y51800
X436250Y51800
X436250Y41800
X436250Y61800
X426250Y61800
X426250Y71800
X426250Y81800
X436250Y81800
X436250Y71800
X391250Y181800
X391250Y191800
X391250Y201800
X391250Y211800
X391250Y221800
X391250Y231800
X391250Y241800
X406250Y306800
X421250Y306800
X436250Y306800
X301250Y306800
X301250Y296800
X301250Y286800
X301250Y276800
X271250Y276800
X271250Y286800
X271250Y296800
X271250Y306800
X271250Y316800
X271250Y326800
X271250Y336800
X251250Y346800
X251250Y356800
X301250Y336800
X301250Y326800
X301250Y316800
X256250Y296800
X256250Y286800
X186250Y251800
X186250Y241800
X186250Y231800
X186250Y221800
X186250Y211800
X151250Y211800
X141250Y211800
X131250Y211800
X121250Y211800
X101250Y155300
X101250Y145300
X286250Y81800
X286250Y71800
X296250Y71800
X296250Y81800
X296250Y61800
X286250Y61800
X286250Y51800
X286250Y41800
X296250Y41800
X296250Y51800
T07
X99750Y242520
X99750Y270080
T08
X101250Y306800
X101250Y381800
X476250Y381800
X476250Y306800
M30
