G75*
%MOIN*%
%OFA0B0*%
%FSLAX25Y25*%
%IPPOS*%
%LPD*%
%AMOC8*
5,1,8,0,0,1.08239X$1,22.5*
%
%ADD10C,0.13300*%
%ADD11C,0.06400*%
%ADD12C,0.06546*%
%ADD13C,0.09658*%
%ADD14C,0.08200*%
%ADD15C,0.06743*%
%ADD16OC8,0.06400*%
%ADD17C,0.07137*%
%ADD18C,0.06400*%
%ADD19OC8,0.08200*%
D10*
X0101250Y0306800D03*
X0101250Y0381800D03*
X0476250Y0381800D03*
X0476250Y0306800D03*
D11*
X0439050Y0251800D02*
X0433450Y0251800D01*
X0433450Y0241800D02*
X0439050Y0241800D01*
X0439050Y0231800D02*
X0433450Y0231800D01*
X0433450Y0221800D02*
X0439050Y0221800D01*
X0439050Y0211800D02*
X0433450Y0211800D01*
X0433450Y0201800D02*
X0439050Y0201800D01*
X0439050Y0191800D02*
X0433450Y0191800D01*
X0433450Y0181800D02*
X0439050Y0181800D01*
X0439050Y0171800D02*
X0433450Y0171800D01*
X0433450Y0161800D02*
X0439050Y0161800D01*
X0439050Y0151800D02*
X0433450Y0151800D01*
X0433450Y0141800D02*
X0439050Y0141800D01*
X0439050Y0131800D02*
X0433450Y0131800D01*
X0433450Y0121800D02*
X0439050Y0121800D01*
X0409050Y0121800D02*
X0403450Y0121800D01*
X0403450Y0131800D02*
X0409050Y0131800D01*
X0409050Y0141800D02*
X0403450Y0141800D01*
X0403450Y0151800D02*
X0409050Y0151800D01*
X0409050Y0161800D02*
X0403450Y0161800D01*
X0403450Y0171800D02*
X0409050Y0171800D01*
X0409050Y0181800D02*
X0403450Y0181800D01*
X0403450Y0191800D02*
X0409050Y0191800D01*
X0409050Y0201800D02*
X0403450Y0201800D01*
X0403450Y0211800D02*
X0409050Y0211800D01*
X0409050Y0221800D02*
X0403450Y0221800D01*
X0403450Y0231800D02*
X0409050Y0231800D01*
X0409050Y0241800D02*
X0403450Y0241800D01*
X0403450Y0251800D02*
X0409050Y0251800D01*
X0299050Y0251800D02*
X0293450Y0251800D01*
X0293450Y0241800D02*
X0299050Y0241800D01*
X0299050Y0231800D02*
X0293450Y0231800D01*
X0293450Y0221800D02*
X0299050Y0221800D01*
X0299050Y0211800D02*
X0293450Y0211800D01*
X0293450Y0201800D02*
X0299050Y0201800D01*
X0299050Y0191800D02*
X0293450Y0191800D01*
X0293450Y0181800D02*
X0299050Y0181800D01*
X0299050Y0171800D02*
X0293450Y0171800D01*
X0293450Y0161800D02*
X0299050Y0161800D01*
X0299050Y0151800D02*
X0293450Y0151800D01*
X0293450Y0141800D02*
X0299050Y0141800D01*
X0299050Y0131800D02*
X0293450Y0131800D01*
X0293450Y0121800D02*
X0299050Y0121800D01*
X0269050Y0121800D02*
X0263450Y0121800D01*
X0263450Y0131800D02*
X0269050Y0131800D01*
X0269050Y0141800D02*
X0263450Y0141800D01*
X0263450Y0151800D02*
X0269050Y0151800D01*
X0269050Y0161800D02*
X0263450Y0161800D01*
X0263450Y0171800D02*
X0269050Y0171800D01*
X0269050Y0181800D02*
X0263450Y0181800D01*
X0263450Y0191800D02*
X0269050Y0191800D01*
X0269050Y0201800D02*
X0263450Y0201800D01*
X0263450Y0211800D02*
X0269050Y0211800D01*
X0269050Y0221800D02*
X0263450Y0221800D01*
X0263450Y0231800D02*
X0269050Y0231800D01*
X0269050Y0241800D02*
X0263450Y0241800D01*
X0263450Y0251800D02*
X0269050Y0251800D01*
D12*
X0110380Y0246457D03*
X0110380Y0266143D03*
D13*
X0099750Y0270080D03*
X0099750Y0242520D03*
D14*
X0116250Y0071800D03*
X0116250Y0081800D03*
X0116250Y0091800D03*
X0116250Y0101800D03*
X0116250Y0111800D03*
X0116250Y0121800D03*
X0141250Y0116800D03*
X0141250Y0126800D03*
X0141250Y0106800D03*
X0141250Y0096800D03*
X0141250Y0086800D03*
X0141250Y0076800D03*
X0141250Y0066800D03*
X0176250Y0086800D03*
X0206250Y0096800D03*
X0176250Y0036800D03*
X0286250Y0031800D03*
X0286250Y0021800D03*
X0296250Y0021800D03*
X0296250Y0031800D03*
X0296250Y0041800D03*
X0296250Y0051800D03*
X0286250Y0051800D03*
X0286250Y0041800D03*
X0286250Y0061800D03*
X0296250Y0061800D03*
X0296250Y0071800D03*
X0296250Y0081800D03*
X0286250Y0081800D03*
X0286250Y0071800D03*
X0316250Y0071800D03*
X0316250Y0081800D03*
X0326250Y0081800D03*
X0326250Y0071800D03*
X0336250Y0071800D03*
X0336250Y0081800D03*
X0346250Y0081800D03*
X0346250Y0071800D03*
X0356250Y0071800D03*
X0356250Y0081800D03*
X0366250Y0081800D03*
X0366250Y0071800D03*
X0376250Y0071800D03*
X0376250Y0081800D03*
X0386250Y0081800D03*
X0386250Y0071800D03*
X0396250Y0071800D03*
X0396250Y0081800D03*
X0406250Y0081800D03*
X0406250Y0071800D03*
X0406250Y0061800D03*
X0396250Y0061800D03*
X0386250Y0061800D03*
X0376250Y0061800D03*
X0366250Y0061800D03*
X0366250Y0051800D03*
X0366250Y0041800D03*
X0376250Y0041800D03*
X0376250Y0051800D03*
X0386250Y0051800D03*
X0386250Y0041800D03*
X0396250Y0041800D03*
X0396250Y0051800D03*
X0406250Y0051800D03*
X0406250Y0041800D03*
X0406250Y0031800D03*
X0406250Y0021800D03*
X0396250Y0021800D03*
X0396250Y0031800D03*
X0386250Y0031800D03*
X0386250Y0021800D03*
X0376250Y0021800D03*
X0376250Y0031800D03*
X0366250Y0031800D03*
X0366250Y0021800D03*
X0366250Y0011800D03*
X0376250Y0011800D03*
X0386250Y0011800D03*
X0396250Y0011800D03*
X0406250Y0011800D03*
X0426250Y0011800D03*
X0436250Y0011800D03*
X0436250Y0021800D03*
X0436250Y0031800D03*
X0426250Y0031800D03*
X0426250Y0021800D03*
X0426250Y0041800D03*
X0426250Y0051800D03*
X0436250Y0051800D03*
X0436250Y0041800D03*
X0436250Y0061800D03*
X0426250Y0061800D03*
X0426250Y0071800D03*
X0426250Y0081800D03*
X0436250Y0081800D03*
X0436250Y0071800D03*
X0356250Y0061800D03*
X0346250Y0061800D03*
X0336250Y0061800D03*
X0326250Y0061800D03*
X0316250Y0061800D03*
X0316250Y0051800D03*
X0316250Y0041800D03*
X0326250Y0041800D03*
X0326250Y0051800D03*
X0336250Y0051800D03*
X0336250Y0041800D03*
X0346250Y0041800D03*
X0346250Y0051800D03*
X0356250Y0051800D03*
X0356250Y0041800D03*
X0356250Y0031800D03*
X0356250Y0021800D03*
X0346250Y0021800D03*
X0346250Y0031800D03*
X0336250Y0031800D03*
X0336250Y0021800D03*
X0326250Y0021800D03*
X0326250Y0031800D03*
X0316250Y0031800D03*
X0316250Y0021800D03*
X0316250Y0011800D03*
X0326250Y0011800D03*
X0336250Y0011800D03*
X0346250Y0011800D03*
X0356250Y0011800D03*
X0296250Y0011800D03*
X0286250Y0011800D03*
X0101250Y0145300D03*
X0101250Y0155300D03*
X0121250Y0211800D03*
X0131250Y0211800D03*
X0141250Y0211800D03*
X0151250Y0211800D03*
X0186250Y0211800D03*
X0186250Y0221800D03*
X0186250Y0231800D03*
X0186250Y0241800D03*
X0186250Y0251800D03*
X0256250Y0286800D03*
X0256250Y0296800D03*
X0271250Y0296800D03*
X0271250Y0306800D03*
X0271250Y0316800D03*
X0271250Y0326800D03*
X0271250Y0336800D03*
X0251250Y0346800D03*
X0251250Y0356800D03*
X0301250Y0336800D03*
X0301250Y0326800D03*
X0301250Y0316800D03*
X0301250Y0306800D03*
X0301250Y0296800D03*
X0301250Y0286800D03*
X0301250Y0276800D03*
X0271250Y0276800D03*
X0271250Y0286800D03*
X0391250Y0241800D03*
X0391250Y0231800D03*
X0391250Y0221800D03*
X0391250Y0211800D03*
X0391250Y0201800D03*
X0391250Y0191800D03*
X0391250Y0181800D03*
X0406250Y0306800D03*
X0421250Y0306800D03*
X0436250Y0306800D03*
D15*
X0101250Y0201643D03*
X0101250Y0191800D03*
X0101250Y0181957D03*
D16*
X0146250Y0236800D03*
X0166250Y0246800D03*
X0146250Y0276800D03*
X0131250Y0276800D03*
X0131250Y0266800D03*
X0166250Y0286800D03*
X0326250Y0326800D03*
X0366250Y0326800D03*
X0336250Y0251800D03*
X0336250Y0241800D03*
X0391250Y0171800D03*
X0391250Y0161800D03*
X0386250Y0141800D03*
X0371250Y0141800D03*
X0336250Y0131800D03*
X0321250Y0131800D03*
X0321250Y0151800D03*
X0371250Y0101800D03*
X0386250Y0101800D03*
X0396250Y0096800D03*
X0436250Y0096800D03*
X0436250Y0101800D03*
X0436250Y0111800D03*
X0336250Y0091800D03*
X0321250Y0091800D03*
X0251250Y0121800D03*
X0251250Y0131800D03*
D17*
X0206093Y0276800D03*
X0186407Y0276800D03*
X0336407Y0301800D03*
X0356093Y0301800D03*
D18*
X0321250Y0171800D03*
D19*
X0196250Y0116800D03*
X0186250Y0116800D03*
X0186250Y0106800D03*
X0186250Y0096800D03*
X0196250Y0096800D03*
X0196250Y0106800D03*
X0196250Y0086800D03*
X0196250Y0076800D03*
X0186250Y0076800D03*
X0186250Y0086800D03*
X0186250Y0066800D03*
X0186250Y0056800D03*
X0196250Y0056800D03*
X0196250Y0066800D03*
X0196250Y0046800D03*
X0196250Y0036800D03*
X0186250Y0036800D03*
X0186250Y0046800D03*
X0186250Y0026800D03*
X0186250Y0016800D03*
X0196250Y0016800D03*
X0196250Y0026800D03*
M02*
